<svg width="12" height="15" viewBox="0 0 12 15" fill="none" xmlns="http://www.w3.org/2000/svg">
<mask id="path-1-outside-1_686_256" maskUnits="userSpaceOnUse" x="0" y="0.5" width="12" height="14" fill="black">
<rect fill="white" y="0.5" width="12" height="14"/>
<path d="M9.5 9.82422L10.6758 11V11.5742H1.32422V11L2.5 9.82422V6.92578C2.5 6.01432 2.72786 5.22135 3.18359 4.54688C3.65755 3.8724 4.30469 3.4349 5.125 3.23438V2.82422C5.125 2.58724 5.20703 2.38672 5.37109 2.22266C5.53516 2.04036 5.74479 1.94922 6 1.94922C6.25521 1.94922 6.46484 2.04036 6.62891 2.22266C6.79297 2.38672 6.875 2.58724 6.875 2.82422V3.23438C7.69531 3.4349 8.33333 3.8724 8.78906 4.54688C9.26302 5.22135 9.5 6.01432 9.5 6.92578V9.82422ZM6 13.3242C5.67188 13.3242 5.38932 13.2148 5.15234 12.9961C4.93359 12.7773 4.82422 12.5039 4.82422 12.1758H7.17578C7.17578 12.4857 7.05729 12.7591 6.82031 12.9961C6.58333 13.2148 6.3099 13.3242 6 13.3242Z"/>
</mask>
<path d="M9.5 9.82422H8.5V10.2384L8.79289 10.5313L9.5 9.82422ZM10.6758 11H11.6758V10.5858L11.3829 10.2929L10.6758 11ZM10.6758 11.5742V12.5742H11.6758V11.5742H10.6758ZM1.32422 11.5742H0.324219V12.5742H1.32422V11.5742ZM1.32422 11L0.617112 10.2929L0.324219 10.5858V11H1.32422ZM2.5 9.82422L3.20711 10.5313L3.5 10.2384V9.82422H2.5ZM3.18359 4.54688L2.3654 3.97193L2.36013 3.97943L2.355 3.98702L3.18359 4.54688ZM5.125 3.23438L5.36245 4.20577L6.125 4.01937V3.23438H5.125ZM5.37109 2.22266L6.0782 2.92976L6.0968 2.91117L6.11439 2.89162L5.37109 2.22266ZM6.62891 2.22266L5.88561 2.89162L5.9032 2.91117L5.9218 2.92976L6.62891 2.22266ZM6.875 3.23438H5.875V4.01937L6.63755 4.20577L6.875 3.23438ZM8.78906 4.54688L7.96047 5.10673L7.9656 5.11432L7.97087 5.12182L8.78906 4.54688ZM5.15234 12.9961L4.44524 13.7032L4.45937 13.7173L4.47406 13.7309L5.15234 12.9961ZM4.82422 12.1758V11.1758H3.82422V12.1758H4.82422ZM7.17578 12.1758H8.17578V11.1758H7.17578V12.1758ZM6.82031 12.9961L7.49859 13.7309L7.51328 13.7173L7.52742 13.7032L6.82031 12.9961ZM9.5 9.82422L8.79289 10.5313L9.96867 11.7071L10.6758 11L11.3829 10.2929L10.2071 9.11711L9.5 9.82422ZM10.6758 11H9.67578V11.5742H10.6758H11.6758V11H10.6758ZM10.6758 11.5742V10.5742H1.32422V11.5742V12.5742H10.6758V11.5742ZM1.32422 11.5742H2.32422V11H1.32422H0.324219V11.5742H1.32422ZM1.32422 11L2.03133 11.7071L3.20711 10.5313L2.5 9.82422L1.79289 9.11711L0.617112 10.2929L1.32422 11ZM2.5 9.82422H3.5V6.92578H2.5H1.5V9.82422H2.5ZM2.5 6.92578H3.5C3.5 6.18908 3.68128 5.59646 4.01218 5.10673L3.18359 4.54688L2.355 3.98702C1.77444 4.84625 1.5 5.83957 1.5 6.92578H2.5ZM3.18359 4.54688L4.00179 5.12182C4.33286 4.65068 4.77103 4.35034 5.36245 4.20577L5.125 3.23438L4.88755 2.26298C3.83834 2.51945 2.98225 3.09411 2.3654 3.97193L3.18359 4.54688ZM5.125 3.23438H6.125V2.82422H5.125H4.125V3.23438H5.125ZM5.125 2.82422H6.125C6.125 2.82334 6.12465 2.84397 6.11207 2.87473C6.09932 2.9059 6.08333 2.92463 6.0782 2.92976L5.37109 2.22266L4.66399 1.51555C4.30794 1.87159 4.125 2.32838 4.125 2.82422H5.125ZM5.37109 2.22266L6.11439 2.89162C6.10774 2.89901 6.08595 2.91906 6.05009 2.93465C6.0152 2.94982 5.99358 2.94922 6 2.94922V1.94922V0.949219C5.47437 0.949219 4.99007 1.15117 4.6278 1.55369L5.37109 2.22266ZM6 1.94922V2.94922C6.00642 2.94922 5.9848 2.94982 5.94991 2.93465C5.91405 2.91906 5.89226 2.89901 5.88561 2.89162L6.62891 2.22266L7.3722 1.55369C7.00993 1.15117 6.52563 0.949219 6 0.949219V1.94922ZM6.62891 2.22266L5.9218 2.92976C5.91667 2.92463 5.90068 2.9059 5.88793 2.87473C5.87535 2.84397 5.875 2.82334 5.875 2.82422H6.875H7.875C7.875 2.32838 7.69206 1.87159 7.33601 1.51555L6.62891 2.22266ZM6.875 2.82422H5.875V3.23438H6.875H7.875V2.82422H6.875ZM6.875 3.23438L6.63755 4.20577C7.22647 4.34973 7.64945 4.64642 7.96047 5.10673L8.78906 4.54688L9.61765 3.98702C9.01722 3.09837 8.16416 2.52006 7.11245 2.26298L6.875 3.23438ZM8.78906 4.54688L7.97087 5.12182C8.31407 5.61023 8.5 6.19737 8.5 6.92578H9.5H10.5C10.5 5.83128 10.212 4.83248 9.60725 3.97193L8.78906 4.54688ZM9.5 6.92578H8.5V9.82422H9.5H10.5V6.92578H9.5ZM6 13.3242V12.3242C5.91841 12.3242 5.87934 12.3063 5.83062 12.2613L5.15234 12.9961L4.47406 13.7309C4.8993 14.1234 5.42534 14.3242 6 14.3242V13.3242ZM5.15234 12.9961L5.85945 12.289C5.84092 12.2705 5.8366 12.2602 5.83473 12.2556C5.83239 12.2497 5.82422 12.2271 5.82422 12.1758H4.82422H3.82422C3.82422 12.7513 4.02669 13.2847 4.44524 13.7032L5.15234 12.9961ZM4.82422 12.1758V13.1758H7.17578V12.1758V11.1758H4.82422V12.1758ZM7.17578 12.1758H6.17578C6.17578 12.1995 6.17204 12.2095 6.16936 12.2157C6.16601 12.2234 6.15373 12.2485 6.11321 12.289L6.82031 12.9961L7.52742 13.7032C7.93507 13.2955 8.17578 12.7738 8.17578 12.1758H7.17578ZM6.82031 12.9961L6.14203 12.2613C6.08149 12.3172 6.04746 12.3242 6 12.3242V13.3242V14.3242C6.57234 14.3242 7.08517 14.1125 7.49859 13.7309L6.82031 12.9961Z" fill="black" mask="url(#path-1-outside-1_686_256)"/>
</svg>
