<svg width="12" height="13" viewBox="0 0 12 13" fill="none" xmlns="http://www.w3.org/2000/svg">
<mask id="path-1-outside-1_686_257" maskUnits="userSpaceOnUse" x="0" y="0.5" width="12" height="12" fill="black">
<rect fill="white" y="0.5" width="12" height="12"/>
<path d="M2.91016 8.33203C3.98568 7.89453 5.01562 7.67578 6 7.67578C6.98438 7.67578 8.00521 7.89453 9.0625 8.33203C10.138 8.7513 10.6758 9.30729 10.6758 10V11.1758H1.32422V10C1.32422 9.30729 1.85286 8.7513 2.91016 8.33203ZM7.64062 5.81641C7.1849 6.27214 6.63802 6.5 6 6.5C5.36198 6.5 4.8151 6.27214 4.35938 5.81641C3.90365 5.36068 3.67578 4.8138 3.67578 4.17578C3.67578 3.53776 3.90365 2.99089 4.35938 2.53516C4.8151 2.0612 5.36198 1.82422 6 1.82422C6.63802 1.82422 7.1849 2.0612 7.64062 2.53516C8.09635 2.99089 8.32422 3.53776 8.32422 4.17578C8.32422 4.8138 8.09635 5.36068 7.64062 5.81641Z"/>
</mask>
<path d="M2.91016 8.33203L3.2788 9.26165L3.28695 9.25833L2.91016 8.33203ZM9.0625 8.33203L8.68015 9.25605L8.68968 9.25999L8.69929 9.26374L9.0625 8.33203ZM10.6758 11.1758V12.1758H11.6758V11.1758H10.6758ZM1.32422 11.1758H0.324219V12.1758H1.32422V11.1758ZM7.64062 5.81641L8.34773 6.52351L7.64062 5.81641ZM4.35938 5.81641L3.65227 6.52351L4.35938 5.81641ZM4.35938 2.53516L5.06648 3.24226L5.07341 3.23533L5.08021 3.22826L4.35938 2.53516ZM7.64062 2.53516L6.91979 3.22826L6.92659 3.23533L6.93352 3.24226L7.64062 2.53516ZM2.91016 8.33203L3.28695 9.25833C4.26392 8.86092 5.16579 8.67578 6 8.67578V7.67578V6.67578C4.86546 6.67578 3.70743 6.92815 2.53336 7.40574L2.91016 8.33203ZM6 7.67578V8.67578C6.83365 8.67578 7.72464 8.86067 8.68015 9.25605L9.0625 8.33203L9.44485 7.40801C8.28578 6.9284 7.1351 6.67578 6 6.67578V7.67578ZM9.0625 8.33203L8.69929 9.26374C9.16315 9.44456 9.4218 9.62236 9.55367 9.7587C9.66507 9.87388 9.67578 9.94426 9.67578 10H10.6758H11.6758C11.6758 8.65698 10.6004 7.85825 9.42571 7.40032L9.0625 8.33203ZM10.6758 10H9.67578V11.1758H10.6758H11.6758V10H10.6758ZM10.6758 11.1758V10.1758H1.32422V11.1758V12.1758H10.6758V11.1758ZM1.32422 11.1758H2.32422V10H1.32422H0.324219V11.1758H1.32422ZM1.32422 10H2.32422C2.32422 9.93866 2.33714 9.8664 2.44541 9.75254C2.57358 9.61773 2.82537 9.44141 3.27878 9.26161L2.91016 8.33203L2.54153 7.40245C1.37653 7.86444 0.324219 8.66652 0.324219 10H1.32422ZM7.64062 5.81641L6.93352 5.1093C6.66319 5.37963 6.36979 5.5 6 5.5V6.5V7.5C6.90625 7.5 7.70661 7.16464 8.34773 6.52351L7.64062 5.81641ZM6 6.5V5.5C5.63021 5.5 5.33681 5.37963 5.06648 5.1093L4.35938 5.81641L3.65227 6.52351C4.29339 7.16464 5.09375 7.5 6 7.5V6.5ZM4.35938 5.81641L5.06648 5.1093C4.79615 4.83897 4.67578 4.54557 4.67578 4.17578H3.67578H2.67578C2.67578 5.08203 3.01114 5.88239 3.65227 6.52351L4.35938 5.81641ZM3.67578 4.17578H4.67578C4.67578 3.80599 4.79615 3.5126 5.06648 3.24226L4.35938 2.53516L3.65227 1.82805C3.01114 2.46917 2.67578 3.26953 2.67578 4.17578H3.67578ZM4.35938 2.53516L5.08021 3.22826C5.35388 2.94364 5.64321 2.82422 6 2.82422V1.82422V0.824219C5.08075 0.824219 4.27633 1.17875 3.63854 1.84205L4.35938 2.53516ZM6 1.82422V2.82422C6.35679 2.82422 6.64612 2.94364 6.91979 3.22826L7.64062 2.53516L8.36146 1.84205C7.72367 1.17875 6.91925 0.824219 6 0.824219V1.82422ZM7.64062 2.53516L6.93352 3.24226C7.20385 3.5126 7.32422 3.80599 7.32422 4.17578H8.32422H9.32422C9.32422 3.26953 8.98886 2.46917 8.34773 1.82805L7.64062 2.53516ZM8.32422 4.17578H7.32422C7.32422 4.54557 7.20385 4.83897 6.93352 5.1093L7.64062 5.81641L8.34773 6.52351C8.98886 5.88239 9.32422 5.08203 9.32422 4.17578H8.32422Z" fill="black" mask="url(#path-1-outside-1_686_257)"/>
</svg>
