<svg width="26" height="26" viewBox="0 0 26 26" fill="none" xmlns="http://www.w3.org/2000/svg">
<path d="M20.5 8.01953V5.5H5.5V8.01953H20.5ZM15.5195 15.5195V13H5.5V15.5195H15.5195ZM5.5 9.25V11.7695H20.5V9.25H5.5ZM23.0195 0.519531C23.6836 0.519531 24.25 0.773437 24.7188 1.28125C25.2266 1.75 25.4805 2.31641 25.4805 2.98047V17.9805C25.4805 18.6445 25.2266 19.2305 24.7188 19.7383C24.25 20.2461 23.6836 20.5 23.0195 20.5H5.5L0.519531 25.4805V2.98047C0.519531 2.31641 0.753906 1.75 1.22266 1.28125C1.73047 0.773437 2.31641 0.519531 2.98047 0.519531H23.0195Z" fill="black"/>
</svg>
